<svg width="14" height="10" viewBox="0 0 14 10" fill="none" xmlns="http://www.w3.org/2000/svg">
<path fill-rule="evenodd" clip-rule="evenodd" d="M5 0C2.23858 0 0 2.23858 0 5C0 7.76142 2.23858 10 5 10H9C11.7614 10 14 7.76142 14 5C14 2.23858 11.7614 0 9 0H5ZM5.31543 2.33417L4.43365 7.90149H3.00006L3.88184 2.33417H5.31543ZM5.28912 7.90149L6.1709 2.33417H8.47168C10.1709 2.33417 11.0163 3.31028 10.7352 5.08503C10.4535 6.86364 9.28912 7.90149 7.5899 7.90149H5.28912ZM8.0994 3.47618H7.42361L6.90359 6.75947H7.57937C8.51297 6.75947 9.10157 6.20004 9.27756 5.08889C9.44316 4.04333 9.00565 3.47618 8.0994 3.47618Z" fill="white" fill-opacity="0.36"/>
</svg>
