<svg width="8" height="10" viewBox="0 0 8 10" fill="none" xmlns="http://www.w3.org/2000/svg">
<path opacity="0.800391" d="M2.88667 0C3.78015 0.567445 4.62177 1.25811 5.27094 2.139C5.65186 2.66969 5.96298 3.28361 6.03378 3.96131C6.32197 3.65867 6.54833 3.29118 6.66301 2.87073C7.55748 3.71163 8.06006 5.01946 7.99425 6.29918C7.99425 7.91505 6.94222 9.36122 5.60898 10C4.21093 8.98292 3.18782 7.21898 3.31446 5.35019C2.85276 5.80199 2.46287 6.38024 2.37013 7.06226C2.19363 8.0869 2.53466 9.12019 3.00134 10C2.0969 9.82706 1.20442 9.33744 0.686879 8.49006C0.089565 7.58214 -0.157737 6.40726 0.103526 5.31885C0.346839 4.16667 1.24131 3.36144 1.60229 2.26762C1.80273 2.56809 1.96926 2.89235 2.08094 3.24362C2.58652 2.25573 2.9475 1.14462 2.88667 0Z" fill="white" fill-opacity="0.36"/>
</svg>
